<?xml version="1.0" standalone="no"?><!DOCTYPE svg PUBLIC "-//W3C//DTD SVG 1.1//EN" "http://www.w3.org/Graphics/SVG/1.1/DTD/svg11.dtd"><svg t="1601810017470" class="icon" viewBox="0 0 1024 1024" version="1.1" xmlns="http://www.w3.org/2000/svg" p-id="4003" xmlns:xlink="http://www.w3.org/1999/xlink" width="200" height="200"><defs><style type="text/css"></style></defs><path d="M784.395 784.178c-11.517 11.517-30.19 11.517-41.706 0l-503.2-503.2c-11.517-11.517-11.517-30.19 0-41.706 11.517-11.517 30.19-11.517 41.706 0l503.2 503.2c11.518 11.516 11.518 30.188 0 41.706z" p-id="4004"></path><path d="M239.489 784.177c-11.517-11.517-11.517-30.19 0-41.706l503.2-503.2c11.516-11.517 30.19-11.517 41.706 0 11.517 11.516 11.517 30.19 0 41.706l-503.2 503.2c-11.516 11.518-30.189 11.518-41.706 0z" p-id="4005"></path></svg>